<svg  width="20px" height="20px" xmlns="http://www.w3.org/2000/svg" xmlns:xlink="http://www.w3.org/1999/xlink" version="1.1" x="0px" y="0px" viewBox="0 0 100 125" enable-background="new 0 0 100 100" xml:space="preserve"><g><path fill="#000000" d="M50,93.525L50,93.525c-11.408,0-22.135-4.443-30.201-12.51c-8.068-8.066-12.511-18.792-12.511-30.2   c0-23.551,19.161-42.71,42.712-42.71s42.712,19.159,42.712,42.71C92.712,74.365,73.551,93.525,50,93.525L50,93.525z M50,12.014   c-21.396,0.001-38.804,17.407-38.804,38.802c0,10.364,4.037,20.108,11.365,27.438C29.891,85.58,39.636,89.616,50,89.616l0,0   c21.396,0,38.804-17.406,38.804-38.801C88.804,29.42,71.396,12.014,50,12.014z"/></g><g><path fill="#000000" d="M44.275,63.261c-0.562,0-1.123-0.241-1.509-0.711c-0.687-0.832-0.568-2.063,0.265-2.751l10.897-8.983   l-10.897-8.983c-0.833-0.687-0.951-1.919-0.265-2.751s1.919-0.951,2.751-0.265l12.726,10.492c0.45,0.37,0.712,0.923,0.712,1.507   s-0.262,1.137-0.712,1.508L45.518,62.814C45.153,63.115,44.713,63.261,44.275,63.261z"/></g></svg>