<svg width="20px" height="20px" xmlns="http://www.w3.org/2000/svg" xmlns:xlink="http://www.w3.org/1999/xlink" version="1.1" x="0px" y="0px" style="enable-background:new 0 0 100 100;" xml:space="preserve" viewBox="15 15.07 70 70.87"><path d="M82,23.4H65v-3.7c0-2.6-2.4-4.6-5.4-4.6H40.4c-3,0-5.4,2-5.4,4.6v3.7H18c-1.7,0-3,1.3-3,3s1.3,3,3,3h3.7L25.4,76  c0.1,5.5,4.5,9.9,10,9.9h29.1c5.5,0,9.9-4.4,10-9.9l3.8-46.5H82c1.7,0,3-1.3,3-3S83.7,23.4,82,23.4z M41,21.1h18v2.3H41V21.1z   M42.2,69.8c0,0-0.1,0-0.1,0c-1.6,0-2.9-1.3-3-2.9l-1.1-24.4c-0.1-1.7,1.2-3.1,2.9-3.1c0,0,0.1,0,0.1,0c1.6,0,2.9,1.3,3,2.9  l1.1,24.4C45.1,68.3,43.9,69.7,42.2,69.8z M60.9,66.9c-0.1,1.6-1.4,2.9-3,2.9c0,0-0.1,0-0.1,0c-1.7-0.1-2.9-1.5-2.9-3.1l1.1-24.4  c0.1-1.6,1.4-2.9,3-2.9c0,0,0.1,0,0.1,0c1.7,0.1,2.9,1.5,2.9,3.1L60.9,66.9z"/></svg>